<svg width="128" height="128" viewBox="0 0 128 128" fill="none" xmlns="http://www.w3.org/2000/svg">
  <defs>
    <linearGradient id="bgGradient" x1="0" y1="0" x2="128" y2="128" gradientUnits="userSpaceOnUse">
      <stop offset="0%" stop-color="#3B82F6"/>
      <stop offset="100%" stop-color="#1D4ED8"/>
    </linearGradient>
    <filter id="shadow" x="-50%" y="-50%" width="200%" height="200%">
      <feGaussianBlur in="SourceAlpha" stdDeviation="3"/>
      <feOffset dx="0" dy="2" result="offsetblur"/>
      <feComponentTransfer>
        <feFuncA type="linear" slope="0.3"/>
      </feComponentTransfer>
      <feMerge>
        <feMergeNode/>
        <feMergeNode in="SourceGraphic"/>
      </feMerge>
    </filter>
  </defs>
  <rect width="128" height="128" rx="28" fill="url(#bgGradient)"/>
  <g filter="url(#shadow)">
    <circle cx="64" cy="64" r="38" fill="#2563EB" stroke="white" stroke-width="4"/>
  </g>
  <g opacity="0.8">
    <circle cx="64" cy="30" r="3" fill="white"/>
    <circle cx="83.4" cy="37.4" r="2.5" fill="white"/>
    <circle cx="95" cy="52" r="2.5" fill="white"/>
    <circle cx="98" cy="64" r="3" fill="white"/>
    <circle cx="95" cy="76" r="2.5" fill="white"/>
    <circle cx="83.4" cy="90.6" r="2.5" fill="white"/>
    <circle cx="64" cy="98" r="3" fill="white"/>
    <circle cx="44.6" cy="90.6" r="2.5" fill="white"/>
    <circle cx="33" cy="76" r="2.5" fill="white"/>
    <circle cx="30" cy="64" r="3" fill="white"/>
    <circle cx="33" cy="52" r="2.5" fill="white"/>
    <circle cx="44.6" cy="37.4" r="2.5" fill="white"/>
  </g>
  <line x1="64" y1="64" x2="64" y2="44" stroke="white" stroke-width="6" stroke-linecap="round"/>
  <line x1="64" y1="64" x2="80" y2="72" stroke="white" stroke-width="5" stroke-linecap="round"/>
  <circle cx="64" cy="64" r="5" fill="white"/>
  <circle cx="64" cy="64" r="42" stroke="white" stroke-width="1.5" fill="none" opacity="0.3"/>
  <g transform="translate(90, 85)" filter="url(#shadow)">
    <rect x="-14" y="-14" width="28" height="28" rx="6" fill="white" opacity="0.95"/>
    <g transform="translate(-8, -8)">
      <path d="M 0 0 L 0 16 M 0 0 L 7 0 L 7 16 M 10 0 L 10 16 M 10 16 L 17 16 L 17 0" 
            stroke="#2563EB" stroke-width="2.5" stroke-linecap="round" stroke-linejoin="round" fill="none"/>
    </g>
  </g>
  <ellipse cx="50" cy="40" rx="20" ry="15" fill="white" opacity="0.15"/>
</svg>